<svg width="18" height="18" viewBox="0 0 18 18" fill="none" xmlns="http://www.w3.org/2000/svg">
<path d="M16.5 9.65833C16.3689 11.0768 15.8366 12.4287 14.9652 13.5557C14.0939 14.6826 12.9196 15.5382 11.5798 16.0221C10.2399 16.5061 8.78999 16.5984 7.39959 16.2884C6.00918 15.9784 4.73583 15.2788 3.72852 14.2715C2.72122 13.2642 2.02162 11.9908 1.71159 10.6004C1.40156 9.21001 1.49393 7.76007 1.97789 6.42025C2.46184 5.08042 3.31736 3.90614 4.44435 3.03479C5.57133 2.16345 6.92317 1.63109 8.34167 1.5C7.51118 2.62356 7.11154 4.00787 7.21545 5.40118C7.31935 6.79448 7.91989 8.10422 8.90784 9.09217C9.89579 10.0801 11.2055 10.6807 12.5988 10.7846C13.9921 10.8885 15.3764 10.4888 16.5 9.65833Z" stroke="#F5F8FF" stroke-width="1.67" stroke-linecap="round" stroke-linejoin="round"/>
</svg>
