<svg width="8" height="9" viewBox="0 0 8 9" fill="none" xmlns="http://www.w3.org/2000/svg">
<path fill-rule="evenodd" clip-rule="evenodd" d="M0.200754 7.94444C0.468426 8.21211 0.902409 8.21211 1.17008 7.94444L3.64602 5.4685L6.29546 8.11794C6.56313 8.38561 6.99711 8.38561 7.26479 8.11794C7.53246 7.85026 7.53246 7.41628 7.26479 7.14861L4.61535 4.49917L7.26475 1.84977C7.53242 1.5821 7.53242 1.14811 7.26475 0.880441C6.99708 0.612769 6.5631 0.61277 6.29542 0.880442L3.64602 3.52984L1.17012 1.05394C0.902444 0.786267 0.468462 0.786267 0.20079 1.05394C-0.0668822 1.32161 -0.0668821 1.75559 0.20079 2.02327L2.67669 4.49917L0.200754 6.97511C-0.0669181 7.24278 -0.0669179 7.67677 0.200754 7.94444Z" fill="#B81800"/>
</svg>
