<svg width="11" height="11" viewBox="0 0 11 11" fill="none" xmlns="http://www.w3.org/2000/svg">
<path d="M5.12851 3.32619L5.12864 3.32632C5.17839 3.2787 5.23702 3.24133 5.30119 3.21634C5.42861 3.16421 5.5714 3.16421 5.69882 3.21635C5.69905 3.21644 5.69927 3.21653 5.6995 3.21663L5.671 3.286C5.72624 3.30742 5.7767 3.33953 5.8195 3.3805L5.12851 3.32619ZM5.12851 3.32619L5.125 3.33006C5.07986 3.37973 5.0435 3.4367 5.01745 3.49854L5.12851 3.32619ZM4.975 3.70073C4.97501 3.70113 4.97502 3.70153 4.97503 3.70193L5.05 3.7L4.975 3.69957C4.975 3.69995 4.975 3.70034 4.975 3.70073ZM5.5 4.975C5.36076 4.975 5.22723 5.03031 5.12877 5.12877C5.03031 5.22722 4.975 5.36076 4.975 5.5V7.3C4.975 7.43924 5.03031 7.57277 5.12877 7.67123C5.22723 7.76969 5.36076 7.825 5.5 7.825C5.63924 7.825 5.77278 7.76969 5.87123 7.67123C5.96969 7.57277 6.025 7.43924 6.025 7.3V5.5C6.025 5.36076 5.96969 5.22722 5.87123 5.12877C5.77278 5.03031 5.63924 4.975 5.5 4.975ZM5.5 0.925C4.59515 0.925 3.71062 1.19332 2.95827 1.69603C2.20591 2.19873 1.61952 2.91325 1.27325 3.74922C0.926982 4.58519 0.836382 5.50507 1.01291 6.39254C1.18944 7.28 1.62516 8.09519 2.26499 8.73501C2.90481 9.37484 3.72 9.81056 4.60746 9.98709C5.49493 10.1636 6.41481 10.073 7.25078 9.72675C8.08675 9.38048 8.80127 8.79409 9.30397 8.04173C9.80668 7.28938 10.075 6.40485 10.075 5.5C10.075 4.8992 9.95667 4.30429 9.72675 3.74922C9.49683 3.19416 9.15984 2.68981 8.73501 2.26499C8.31019 1.84016 7.80584 1.50317 7.25078 1.27325C6.69571 1.04334 6.1008 0.925 5.5 0.925ZM5.5 9.025C4.80282 9.025 4.1213 8.81826 3.54162 8.43093C2.96193 8.0436 2.51013 7.49307 2.24333 6.84896C1.97653 6.20485 1.90672 5.49609 2.04273 4.81231C2.17875 4.12852 2.51447 3.50043 3.00745 3.00745C3.50043 2.51447 4.12853 2.17874 4.81231 2.04273C5.49609 1.90672 6.20485 1.97653 6.84896 2.24332C7.49307 2.51012 8.0436 2.96193 8.43093 3.54161C8.81826 4.1213 9.025 4.80282 9.025 5.5C9.025 6.43489 8.65362 7.33148 7.99255 7.99255C7.33149 8.65361 6.43489 9.025 5.5 9.025Z" fill="#005585" stroke="#005585" stroke-width="0.15"/>
</svg>
