<svg width="10" height="11" viewBox="0 0 10 11" fill="none" xmlns="http://www.w3.org/2000/svg">
<path d="M0.985014 6.30624C0.983245 6.99883 1.14709 7.6818 1.4629 8.2982C1.7787 8.91461 2.23731 9.44657 2.80048 9.84973C3.36364 10.2529 4.01504 10.5156 4.70034 10.6158C5.38564 10.7161 6.08499 10.6511 6.74005 10.4261C7.39511 10.2012 7.9869 9.82294 8.46606 9.32284C8.94522 8.82275 9.29787 8.21534 9.49459 7.55126C9.69132 6.88719 9.72641 6.18571 9.59695 5.50531C9.46833 4.8293 9.18096 4.19357 8.75859 3.65045L9.24157 3.17279L9.24163 3.17273C9.34634 3.06802 9.40517 2.92599 9.40517 2.7779C9.40517 2.62981 9.34634 2.48779 9.24163 2.38307C9.13691 2.27836 8.99489 2.21953 8.8468 2.21953C8.69871 2.21953 8.55668 2.27836 8.45197 2.38307L8.45191 2.38313L7.97419 2.86616C7.21507 2.28261 6.28431 1.96612 5.32657 1.96612C4.36883 1.96612 3.43806 2.28261 2.67894 2.86616L2.19581 2.37772L2.19572 2.37762C2.09028 2.27292 1.94756 2.21439 1.79896 2.21491C1.65036 2.21543 1.50806 2.27496 1.40336 2.3804C1.29865 2.48585 1.24012 2.62856 1.24064 2.77716C1.24116 2.92576 1.30069 3.06806 1.40614 3.17277L1.40616 3.17279L1.89453 3.65585C1.30408 4.41291 0.983826 5.34589 0.985014 6.30624ZM0.985014 6.30624C0.985014 6.30623 0.985014 6.30622 0.985014 6.30621L1.00001 6.30625L0.985014 6.30627C0.985014 6.30626 0.985014 6.30625 0.985014 6.30624ZM5.32927 9.53819C4.69006 9.53819 4.06519 9.34864 3.5337 8.99351C3.00221 8.63838 2.58796 8.13362 2.34335 7.54306C2.09873 6.9525 2.03472 6.30266 2.15943 5.67573C2.28414 5.04879 2.59195 4.47291 3.04394 4.02092C3.49594 3.56892 4.07182 3.26111 4.69875 3.1364C5.32569 3.0117 5.97553 3.0757 6.56609 3.32032C7.15665 3.56494 7.66141 3.97919 8.01654 4.51068C8.37167 5.04217 8.56122 5.66703 8.56122 6.30625C8.56122 7.16341 8.22071 7.98547 7.6146 8.59158C7.0085 9.19769 6.18644 9.53819 5.32927 9.53819ZM4.24696 1.45083H6.41159C6.55909 1.45083 6.70055 1.39224 6.80485 1.28794C6.90915 1.18364 6.96775 1.04218 6.96775 0.894673C6.96775 0.747171 6.90915 0.60571 6.80485 0.50141C6.70055 0.397111 6.55909 0.338516 6.41159 0.338516H4.24696C4.09946 0.338516 3.958 0.397111 3.8537 0.50141C3.7494 0.60571 3.6908 0.747171 3.6908 0.894673C3.6908 1.04218 3.7494 1.18364 3.8537 1.28794C3.958 1.39224 4.09946 1.45083 4.24696 1.45083ZM5.88543 4.68278C5.88543 4.53527 5.82684 4.39381 5.72254 4.28951C5.61824 4.18521 5.47678 4.12662 5.32927 4.12662C5.18177 4.12662 5.04031 4.18521 4.93601 4.28951C4.83171 4.39381 4.77312 4.53527 4.77312 4.68278V5.69889C4.65097 5.80995 4.56482 5.95507 4.52586 6.1156C4.48637 6.27831 4.49722 6.44918 4.55696 6.60559C4.6167 6.76201 4.72253 6.89659 4.86044 6.99154C4.99835 7.08649 5.16184 7.13733 5.32927 7.13733C5.49671 7.13733 5.6602 7.08649 5.79811 6.99154C5.93602 6.89659 6.04184 6.76201 6.10159 6.60559C6.16133 6.44918 6.17218 6.27831 6.13269 6.1156C6.09372 5.95507 6.00758 5.80995 5.88543 5.69889V4.68278Z" fill="#003CC7" stroke="#003CC7" stroke-width="0.03"/>
</svg>
