<svg width="10" height="7" viewBox="0 0 10 7" fill="none" xmlns="http://www.w3.org/2000/svg">
<path d="M9.15461 0.290949C9.09264 0.228463 9.0189 0.178867 8.93766 0.145021C8.85643 0.111175 8.76929 0.09375 8.68128 0.09375C8.59327 0.09375 8.50614 0.111175 8.4249 0.145021C8.34366 0.178867 8.26992 0.228463 8.20795 0.290949L3.24128 5.26428L1.15461 3.17095C1.09027 3.10879 1.01431 3.05991 0.93107 3.02711C0.847833 2.99431 0.75895 2.97822 0.669496 2.97977C0.580043 2.98132 0.49177 3.00047 0.409717 3.03613C0.327665 3.07179 0.253441 3.12327 0.191282 3.18762C0.129123 3.25196 0.0802466 3.32792 0.0474439 3.41116C0.0146413 3.4944 -0.0014457 3.58328 0.000101946 3.67273C0.00164959 3.76219 0.0208015 3.85046 0.0564638 3.93251C0.0921261 4.01456 0.143601 4.08879 0.207948 4.15095L2.76795 6.71095C2.82992 6.77343 2.90366 6.82303 2.9849 6.85688C3.06614 6.89072 3.15327 6.90815 3.24128 6.90815C3.32929 6.90815 3.41643 6.89072 3.49767 6.85688C3.57891 6.82303 3.65264 6.77343 3.71461 6.71095L9.15461 1.27095C9.22228 1.20852 9.27629 1.13275 9.31323 1.04842C9.35017 0.964087 9.36924 0.873017 9.36924 0.780949C9.36924 0.688881 9.35017 0.597811 9.31323 0.513478C9.27629 0.429145 9.22228 0.353377 9.15461 0.290949Z" fill="#1C6C09"/>
</svg>
