<svg xmlns="http://www.w3.org/2000/svg" viewBox="0 0 8.72 10.35"><defs><style>.cls-1{fill:#bc3803;stroke:#bc3803;stroke-width:0.03px;}</style></defs><g id="Layer_2" data-name="Layer 2"><g id="Layer_1-2" data-name="Layer 1"><path class="cls-1" d="M7.8,3.36l.5-.5a.6.6,0,0,0,0-.81.6.6,0,0,0-.81,0l-.5.5a4.29,4.29,0,0,0-5.26,0l-.5-.5a.59.59,0,0,0-.8,0,.58.58,0,0,0,0,.81l.49.5A4.3,4.3,0,0,0,0,6a4.35,4.35,0,0,0,8.7,0A4.3,4.3,0,0,0,7.8,3.36ZM4.36,9.21A3.22,3.22,0,1,1,7.57,6,3.22,3.22,0,0,1,4.36,9.21Z"/><path class="cls-1" d="M5.19,6A.83.83,0,0,1,3.53,6a.78.78,0,0,1,.26-.59v-1a.58.58,0,0,1,.57-.57.57.57,0,0,1,.57.57v1A.78.78,0,0,1,5.19,6Z"/><path class="cls-1" d="M6,.59a.57.57,0,0,1-.57.56H3.29A.57.57,0,1,1,3.29,0H5.43A.57.57,0,0,1,6,.59Z"/></g></g></svg>