<svg width="10" height="12" viewBox="0 0 10 12" fill="none" xmlns="http://www.w3.org/2000/svg">
<path d="M0.985014 6.80624C0.983245 7.49883 1.14709 8.1818 1.4629 8.7982C1.7787 9.41461 2.23731 9.94657 2.80048 10.3497C3.36364 10.7529 4.01504 11.0156 4.70034 11.1158C5.38564 11.2161 6.08499 11.1511 6.74005 10.9261C7.39511 10.7012 7.9869 10.3229 8.46606 9.82284C8.94522 9.32275 9.29787 8.71534 9.49459 8.05126C9.69132 7.38719 9.72641 6.68571 9.59695 6.00531C9.46833 5.3293 9.18096 4.69357 8.75859 4.15045L9.24157 3.67279L9.24163 3.67273C9.34634 3.56802 9.40517 3.42599 9.40517 3.2779C9.40517 3.12981 9.34634 2.98779 9.24163 2.88307C9.13691 2.77836 8.99489 2.71953 8.8468 2.71953C8.69871 2.71953 8.55668 2.77836 8.45197 2.88307L8.45191 2.88313L7.97419 3.36616C7.21507 2.78261 6.28431 2.46612 5.32657 2.46612C4.36883 2.46612 3.43806 2.78261 2.67894 3.36616L2.19581 2.87772L2.19572 2.87762C2.09028 2.77292 1.94756 2.71439 1.79896 2.71491C1.65036 2.71543 1.50806 2.77496 1.40336 2.8804C1.29865 2.98585 1.24012 3.12856 1.24064 3.27716C1.24116 3.42576 1.30069 3.56806 1.40614 3.67277L1.40616 3.67279L1.89453 4.15585C1.30408 4.91291 0.983826 5.84589 0.985014 6.80624ZM0.985014 6.80624C0.985014 6.80623 0.985014 6.80622 0.985014 6.80621L1.00001 6.80625L0.985014 6.80627C0.985014 6.80626 0.985014 6.80625 0.985014 6.80624ZM5.32927 10.0382C4.69006 10.0382 4.06519 9.84864 3.5337 9.49351C3.00221 9.13838 2.58796 8.63362 2.34335 8.04306C2.09873 7.4525 2.03472 6.80266 2.15943 6.17573C2.28414 5.54879 2.59195 4.97291 3.04394 4.52092C3.49594 4.06892 4.07182 3.76111 4.69875 3.6364C5.32569 3.5117 5.97553 3.5757 6.56609 3.82032C7.15665 4.06494 7.66141 4.47919 8.01654 5.01068C8.37167 5.54217 8.56122 6.16703 8.56122 6.80625C8.56122 7.66341 8.22071 8.48547 7.6146 9.09158C7.0085 9.69769 6.18644 10.0382 5.32927 10.0382ZM4.24696 1.95083H6.41159C6.55909 1.95083 6.70055 1.89224 6.80485 1.78794C6.90915 1.68364 6.96775 1.54218 6.96775 1.39467C6.96775 1.24717 6.90915 1.10571 6.80485 1.00141C6.70055 0.897111 6.55909 0.838516 6.41159 0.838516H4.24696C4.09946 0.838516 3.958 0.897111 3.8537 1.00141C3.7494 1.10571 3.6908 1.24717 3.6908 1.39467C3.6908 1.54218 3.7494 1.68364 3.8537 1.78794C3.958 1.89224 4.09946 1.95083 4.24696 1.95083ZM5.88543 5.18278C5.88543 5.03527 5.82684 4.89381 5.72254 4.78951C5.61824 4.68521 5.47678 4.62662 5.32927 4.62662C5.18177 4.62662 5.04031 4.68521 4.93601 4.78951C4.83171 4.89381 4.77312 5.03527 4.77312 5.18278V6.19889C4.65097 6.30995 4.56482 6.45507 4.52586 6.6156C4.48637 6.77831 4.49722 6.94918 4.55696 7.10559C4.6167 7.26201 4.72253 7.39659 4.86044 7.49154C4.99835 7.58649 5.16184 7.63733 5.32927 7.63733C5.49671 7.63733 5.6602 7.58649 5.79811 7.49154C5.93602 7.39659 6.04184 7.26201 6.10159 7.10559C6.16133 6.94918 6.17218 6.77831 6.13269 6.6156C6.09372 6.45507 6.00758 6.30995 5.88543 6.19889V5.18278Z" fill="#BC3803" stroke="#BC3803" stroke-width="0.03"/>
</svg>
